<svg width="512" height="510" viewBox="0 0 512 510" fill="none" xmlns="http://www.w3.org/2000/svg">
<path d="M10.06 509.506C15.616 509.506 20.12 505.002 20.12 499.446C20.12 493.89 15.616 489.386 10.06 489.386C4.50402 489.386 0 493.89 0 499.446C0 505.002 4.50402 509.506 10.06 509.506Z" fill="white"/>
<path d="M267.005 254.348C272.55 254.348 277.045 249.853 277.045 244.308C277.045 238.763 272.55 234.268 267.005 234.268C261.46 234.268 256.965 238.763 256.965 244.308C256.965 249.853 261.46 254.348 267.005 254.348Z" fill="white"/>
<path d="M398.479 117.032C390.408 108.96 379.677 104.516 368.263 104.516C356.849 104.516 346.117 108.962 338.047 117.032C321.386 133.694 321.386 160.804 338.047 177.465C346.379 185.796 357.319 189.96 368.263 189.96C379.204 189.96 390.149 185.794 398.479 177.465C415.14 160.803 415.14 133.693 398.479 117.032ZM384.282 163.266C375.449 172.098 361.076 172.098 352.245 163.266C343.412 154.434 343.412 140.062 352.245 131.229C356.524 126.95 362.212 124.594 368.263 124.594C374.314 124.594 380.002 126.95 384.281 131.229C393.114 140.062 393.114 154.434 384.282 163.266Z" fill="white"/>
<path d="M125.409 410.45C120.445 407.978 114.419 409.999 111.947 414.962L99.989 438.977C94.789 449.418 84.331 456.4 72.693 457.196L58.785 458.148C56.434 458.305 54.888 457.134 54.173 456.419C53.458 455.704 52.284 454.155 52.444 451.806L53.396 437.899C54.193 426.262 61.175 415.803 71.615 410.603L95.629 398.645C100.593 396.173 102.613 390.146 100.141 385.183C97.67 380.22 91.643 378.199 86.679 380.671L62.665 392.629C45.873 400.991 34.645 417.811 33.363 436.527L32.411 450.434C31.897 457.941 34.653 465.297 39.973 470.617C44.871 475.515 51.496 478.241 58.376 478.241C58.967 478.241 59.562 478.221 60.156 478.18L74.064 477.228C92.78 475.947 109.6 464.72 117.962 447.926L129.92 423.912C132.392 418.948 130.372 412.922 125.409 410.45Z" fill="white"/>
<path d="M505.07 7.18001C500.359 2.53901 493.869 0.112007 487.277 0.541007L477.929 1.13701C394.11 6.48801 315.667 46.947 262.714 112.141L240.71 139.23L183.127 137.539C183.029 137.536 182.93 137.535 182.833 137.535C137.165 137.535 94.23 155.319 61.937 187.611L2.95899 246.59C0.153989 249.395 -0.737011 253.59 0.686989 257.292C2.11099 260.995 5.58099 263.513 9.54299 263.715L134.387 270.129L129.297 276.396C126.732 279.555 126.326 283.949 128.271 287.523C130.227 291.119 132.277 294.658 134.415 298.14L104.809 333.287C102.278 336.292 101.733 340.498 103.412 344.05C109.879 357.715 118.462 369.993 128.926 380.543C139.644 391.351 152.177 400.189 166.175 406.814C167.543 407.462 169.01 407.779 170.468 407.779C172.729 407.779 174.971 407.015 176.795 405.536C183.173 400.362 190.526 394.225 197.638 388.291C202.707 384.061 207.893 379.734 212.74 375.744C215.633 377.485 218.562 379.173 221.535 380.79C223.039 381.608 224.688 382.011 226.331 382.011C228.517 382.011 230.689 381.299 232.487 379.903L239.33 374.593L245.772 499.963C245.976 503.925 248.493 507.395 252.195 508.819C253.367 509.269 254.585 509.489 255.795 509.489C258.41 509.489 260.978 508.466 262.896 506.547L321.875 447.568C354.168 415.275 371.951 372.341 371.951 326.672V271.677L395.218 253.622C464.947 199.512 507.414 117.918 511.73 29.76L511.969 24.874C512.295 18.27 509.779 11.822 505.07 7.18001ZM33.123 244.822L76.135 201.81C104.6 173.345 142.438 157.653 182.688 157.614L224.773 158.85L150.063 250.83L33.123 244.822ZM184.774 372.874C179.533 377.246 174.16 381.73 169.174 385.831C159.53 380.608 150.806 374.091 143.182 366.403C135.798 358.958 129.513 350.481 124.445 341.143L146.121 315.41C152.675 324.203 159.849 332.532 167.599 340.335C167.605 340.341 167.611 340.346 167.617 340.352C167.619 340.354 167.621 340.357 167.623 340.359C167.626 340.362 167.629 340.364 167.632 340.367C176.225 349.015 185.468 356.951 195.273 364.128C191.811 367.002 188.264 369.962 184.774 372.874ZM351.875 326.672C351.875 366.977 336.18 404.869 307.679 433.37L264.667 476.382L258.665 359.59L351.874 287.26V326.672H351.875ZM491.678 28.779C487.649 111.076 448.005 187.246 382.911 237.759L225.451 359.948C212.393 352.318 200.222 343.309 189.083 333.102L242.169 280.016C246.089 276.096 246.089 269.738 242.169 265.817C238.248 261.896 231.891 261.896 227.97 265.817L174.934 318.853C165.183 308.058 156.547 296.312 149.194 283.749L278.3 124.8C327.732 63.941 400.96 26.171 479.207 21.177L488.555 20.581C489.78 20.505 490.6 21.113 490.978 21.485C491.355 21.856 491.978 22.663 491.918 23.894L491.678 28.779Z" fill="white"/>
</svg>
