<svg width="512" height="394" viewBox="0 0 512 394" fill="none" xmlns="http://www.w3.org/2000/svg">
<path d="M511.976 357.063C511.971 356.988 511.972 356.914 511.965 356.839C511.938 356.542 511.895 356.251 511.834 355.966C511.828 355.938 511.819 355.91 511.812 355.882C511.753 355.62 511.68 355.364 511.594 355.114C511.571 355.047 511.546 354.982 511.521 354.916C511.437 354.689 511.342 354.468 511.237 354.253C511.219 354.215 511.207 354.176 511.188 354.138L471.076 275.02V14.72C471.076 6.714 464.563 0.201 456.557 0.201H55.441C47.435 0.201 40.922 6.714 40.922 14.72V275.018L0.811 354.137C0.792 354.175 0.78 354.214 0.762 354.252C0.657 354.467 0.563 354.688 0.478 354.914C0.453 354.98 0.428 355.046 0.405 355.113C0.32 355.364 0.246 355.621 0.187 355.883C0.181 355.91 0.172 355.937 0.166 355.964C0.105 356.25 0.062 356.541 0.035 356.838C0.028 356.912 0.028 356.987 0.024 357.061C0.014 357.217 0 357.371 0 357.529V376.555C0 386.064 7.735 393.799 17.244 393.799H494.756C504.265 393.799 512 386.064 512 376.555V357.529C512 357.371 511.986 357.217 511.976 357.063ZM55.923 15.203H456.077V269.312H55.923V15.203ZM53.029 284.311H458.97L492.288 350.028H327.508L319.237 320.039C317.553 313.934 311.955 309.67 305.622 309.67H206.376C200.043 309.67 194.444 313.934 192.761 320.038L184.49 350.028H19.711L53.029 284.311ZM311.948 350.029H200.052L207.045 324.671H304.955L311.948 350.029ZM497 376.554C497 377.791 495.993 378.798 494.756 378.798H17.244C16.007 378.798 15 377.791 15 376.554V365.028H497V376.554Z" fill="#FFFEFE"/>
</svg>
