<svg width="90" height="90" viewBox="0 0 90 90" fill="none" xmlns="http://www.w3.org/2000/svg">
<circle cx="44.75" cy="44.75" r="44.75" fill="url(#paint0_linear)"/>
<path d="M35.5263 29.3402V50.6887H46.2005C47.6634 50.6887 49.0395 50.416 50.3289 49.8705C51.6182 49.3002 52.7464 48.5315 53.7134 47.5645C54.6804 46.5975 55.4366 45.4694 55.9821 44.18C56.5524 42.8659 56.8376 41.4774 56.8376 40.0145C56.8376 38.5516 56.5524 37.1754 55.9821 35.8861C55.4366 34.572 54.6804 33.4314 53.7134 32.4644C52.7464 31.4974 51.6182 30.7411 50.3289 30.1956C49.0395 29.6254 47.6634 29.3402 46.2005 29.3402H35.5263ZM35.5263 72H24.852V18.666H46.2005C48.1593 18.666 50.0437 18.9263 51.8538 19.447C53.6638 19.9429 55.3499 20.662 56.9119 21.6042C58.4988 22.5216 59.9369 23.6374 61.2263 24.9515C62.5404 26.2408 63.6562 27.6789 64.5736 29.2658C65.5158 30.8527 66.2349 32.5512 66.7308 34.3612C67.2515 36.1712 67.5118 38.0557 67.5118 40.0145C67.5118 41.8493 67.2763 43.6345 66.8051 45.3702C66.3588 47.1058 65.7018 48.7547 64.8339 50.3168C63.9909 51.8789 62.9495 53.317 61.7098 54.6311C60.47 55.9452 59.0815 57.0858 57.5442 58.0528L63.4578 72H52.1141L47.4651 61.2514L35.5263 61.3258V72Z" fill="#3F3D56"/>
<path d="M33.5149 47.0353C27.3185 44.7232 29.7434 30.4859 24.6602 19.8044V72.1715C24.6602 72.1715 39.7114 49.3474 33.5149 47.0353Z" fill="#FEAE46"/>
<defs>
<linearGradient id="paint0_linear" x1="44.75" y1="0" x2="44.75" y2="89.5" gradientUnits="userSpaceOnUse">
<stop stop-color="#ED885D"/>
<stop offset="1" stop-color="#EE6C64"/>
</linearGradient>
</defs>
</svg>
