<svg width="424" height="459" viewBox="0 0 424 459" fill="none" xmlns="http://www.w3.org/2000/svg">
<mask id="path-1-outside-1" maskUnits="userSpaceOnUse" x="0" y="82.5" width="424" height="376" fill="black">
<rect fill="white" y="82.5" width="424" height="376"/>
<path fill-rule="evenodd" clip-rule="evenodd" d="M332.215 109.85C370.098 143.203 394 192.06 394 246.5C394 347.016 312.516 428.5 212 428.5C111.484 428.5 30 347.016 30 246.5C30 192.06 53.9024 143.203 91.7851 109.85C86.3593 105.826 81.1423 101.536 76.1533 97C35.5131 133.951 10 187.246 10 246.5C10 358.062 100.438 448.5 212 448.5C323.562 448.5 414 358.062 414 246.5C414 187.246 388.487 133.951 347.847 97C342.858 101.536 337.641 105.826 332.215 109.85Z"/>
</mask>
<path fill-rule="evenodd" clip-rule="evenodd" d="M332.215 109.85C370.098 143.203 394 192.06 394 246.5C394 347.016 312.516 428.5 212 428.5C111.484 428.5 30 347.016 30 246.5C30 192.06 53.9024 143.203 91.7851 109.85C86.3593 105.826 81.1423 101.536 76.1533 97C35.5131 133.951 10 187.246 10 246.5C10 358.062 100.438 448.5 212 448.5C323.562 448.5 414 358.062 414 246.5C414 187.246 388.487 133.951 347.847 97C342.858 101.536 337.641 105.826 332.215 109.85Z" fill="white"/>
<path d="M332.215 109.85L325.607 117.356L316.326 109.185L326.258 101.818L332.215 109.85ZM91.7851 109.85L97.7423 101.818L107.674 109.184L98.3931 117.356L91.7851 109.85ZM76.1533 97L69.4261 89.601L76.1533 83.4846L82.8805 89.601L76.1533 97ZM347.847 97L341.12 89.601L347.847 83.4846L354.574 89.601L347.847 97ZM338.823 102.344C378.77 137.515 404 189.067 404 246.5H384C384 195.053 361.425 148.89 325.607 117.356L338.823 102.344ZM404 246.5C404 352.539 318.039 438.5 212 438.5V418.5C306.993 418.5 384 341.493 384 246.5H404ZM212 438.5C105.961 438.5 20 352.539 20 246.5H40C40 341.493 117.007 418.5 212 418.5V438.5ZM20 246.5C20 189.067 45.2296 137.515 85.177 102.344L98.3931 117.356C62.5752 148.89 40 195.053 40 246.5H20ZM85.8279 117.882C80.1345 113.659 74.6606 109.158 69.4261 104.399L82.8805 89.601C87.6241 93.9139 92.5841 97.9924 97.7423 101.818L85.8279 117.882ZM0 246.5C0 184.312 26.7892 128.367 69.4261 89.601L82.8805 104.399C44.2369 139.534 20 190.18 20 246.5H0ZM212 458.5C94.9156 458.5 0 363.584 0 246.5H20C20 352.539 105.961 438.5 212 438.5V458.5ZM424 246.5C424 363.584 329.084 458.5 212 458.5V438.5C318.039 438.5 404 352.539 404 246.5H424ZM354.574 89.601C397.211 128.367 424 184.312 424 246.5H404C404 190.18 379.763 139.534 341.119 104.399L354.574 89.601ZM354.574 104.399C349.339 109.158 343.865 113.659 338.172 117.882L326.258 101.818C331.416 97.9924 336.376 93.9139 341.12 89.601L354.574 104.399Z" fill="white" mask="url(#path-1-outside-1)"/>
<path d="M205.5 196.5V0.5" stroke="white" stroke-width="30"/>
</svg>
