<svg width="501" height="501" viewBox="0 0 501 501" fill="none" xmlns="http://www.w3.org/2000/svg">
<circle cx="250.5" cy="250.5" r="250.5" fill="#66DDAA"/>
<path d="M270.764 320.658H229.992L226.818 65.5312H274.182L270.764 320.658ZM225.109 398.295C225.109 390.971 227.307 384.867 231.701 379.984C236.258 374.939 242.932 372.416 251.721 372.416C260.51 372.416 267.183 374.939 271.74 379.984C276.298 384.867 278.576 390.971 278.576 398.295C278.576 405.619 276.298 411.723 271.74 416.605C267.183 421.326 260.51 423.686 251.721 423.686C242.932 423.686 236.258 421.326 231.701 416.605C227.307 411.723 225.109 405.619 225.109 398.295Z" fill="white"/>
</svg>
