<svg width="375" height="95" viewBox="0 0 375 95" fill="none" xmlns="http://www.w3.org/2000/svg">
<circle cx="44.75" cy="44.75" r="44.75" fill="url(#paint0_linear)"/>
<path d="M35.5263 29.3402V50.6887H46.2005C47.6634 50.6887 49.0395 50.416 50.3289 49.8705C51.6182 49.3002 52.7464 48.5315 53.7134 47.5645C54.6804 46.5975 55.4366 45.4694 55.9821 44.18C56.5524 42.8659 56.8376 41.4774 56.8376 40.0145C56.8376 38.5516 56.5524 37.1754 55.9821 35.8861C55.4366 34.572 54.6804 33.4314 53.7134 32.4644C52.7464 31.4974 51.6182 30.7411 50.3289 30.1956C49.0395 29.6254 47.6634 29.3402 46.2005 29.3402H35.5263ZM35.5263 72H24.852V18.666H46.2005C48.1593 18.666 50.0437 18.9263 51.8538 19.447C53.6638 19.9429 55.3499 20.662 56.9119 21.6042C58.4988 22.5216 59.9369 23.6374 61.2263 24.9515C62.5404 26.2408 63.6562 27.6789 64.5736 29.2658C65.5158 30.8527 66.2349 32.5512 66.7308 34.3612C67.2515 36.1712 67.5118 38.0557 67.5118 40.0145C67.5118 41.8493 67.2763 43.6345 66.8051 45.3702C66.3588 47.1058 65.7018 48.7547 64.8339 50.3168C63.9909 51.8789 62.9495 53.317 61.7098 54.6311C60.47 55.9452 59.0815 57.0858 57.5442 58.0528L63.4578 72H52.1141L47.4651 61.2514L35.5263 61.3258V72Z" fill="#3F3D56"/>
<path d="M33.5149 47.0353C27.3185 44.7232 29.7434 30.4859 24.6602 19.8044V72.1715C24.6602 72.1715 39.7114 49.3474 33.5149 47.0353Z" fill="#FEAE46"/>
<path d="M109.376 65.2556C109.773 65.3795 110.17 65.4663 110.567 65.5159C110.963 65.5407 111.36 65.5531 111.757 65.5531C112.748 65.5531 113.703 65.4167 114.62 65.144C115.538 64.8712 116.393 64.4869 117.187 63.991C118.005 63.4703 118.724 62.8505 119.344 62.1314C119.989 61.3875 120.509 60.5693 120.906 59.6767L128.345 67.1524C127.402 68.4913 126.311 69.6939 125.072 70.7601C123.857 71.8262 122.53 72.7313 121.092 73.4751C119.679 74.219 118.179 74.7768 116.592 75.1488C115.03 75.5455 113.418 75.7438 111.757 75.7438C108.955 75.7438 106.314 75.2232 103.835 74.1818C101.38 73.1404 99.2228 71.6899 97.3632 69.8302C95.5284 67.9706 94.0778 65.7639 93.0117 63.21C91.9455 60.6313 91.4124 57.8047 91.4124 54.7301C91.4124 51.5811 91.9455 48.7049 93.0117 46.1014C94.0778 43.498 95.5284 41.2788 97.3632 39.444C99.2228 37.6092 101.38 36.1834 103.835 35.1668C106.314 34.1502 108.955 33.642 111.757 33.642C113.418 33.642 115.042 33.8403 116.629 34.237C118.216 34.6338 119.716 35.204 121.129 35.9479C122.567 36.6917 123.906 37.6092 125.146 38.7001C126.386 39.7663 127.477 40.9689 128.419 42.3078L109.376 65.2556ZM114.583 44.3162C114.112 44.1426 113.641 44.0311 113.17 43.9815C112.724 43.9319 112.253 43.9071 111.757 43.9071C110.368 43.9071 109.054 44.1674 107.814 44.6881C106.599 45.184 105.533 45.9031 104.616 46.8453C103.723 47.7875 103.016 48.9281 102.496 50.267C101.975 51.5811 101.715 53.0688 101.715 54.7301C101.715 55.102 101.727 55.5235 101.752 55.9946C101.801 56.4657 101.863 56.9492 101.938 57.4451C102.037 57.9162 102.149 58.375 102.273 58.8213C102.397 59.2676 102.558 59.6643 102.756 60.0114L114.583 44.3162ZM146.457 75H136.304V45.2832H131.357V35.1668H136.304V33.27C136.304 30.8153 136.762 28.5094 137.68 26.3522C138.622 24.1951 139.899 22.323 141.511 20.7362C143.147 19.1245 145.044 17.8599 147.201 16.9425C149.358 16.0003 151.664 15.5292 154.119 15.5292H161.743V25.6456H154.119C153.028 25.6456 152.011 25.8439 151.069 26.2406C150.152 26.6126 149.346 27.1457 148.652 27.8399C147.982 28.5094 147.449 29.3152 147.052 30.2574C146.656 31.1748 146.457 32.179 146.457 33.27V35.1668H158.917V45.2832H146.457V75ZM173.98 75H163.752V19.3228H173.98V75ZM220.322 75H217.867L213.924 69.5327C212.957 70.4005 211.928 71.2188 210.837 71.9874C209.771 72.7313 208.643 73.3883 207.453 73.9586C206.263 74.5041 205.035 74.938 203.771 75.2603C202.531 75.5827 201.267 75.7438 199.977 75.7438C197.175 75.7438 194.535 75.2727 192.055 74.3305C189.601 73.3883 187.443 72.0246 185.584 70.2394C183.749 68.4293 182.298 66.2226 181.232 63.6191C180.166 61.0156 179.633 58.0526 179.633 54.7301C179.633 51.6307 180.166 48.7917 181.232 46.213C182.298 43.6095 183.749 41.378 185.584 39.5184C187.443 37.6587 189.601 36.2206 192.055 35.204C194.535 34.1626 197.175 33.642 199.977 33.642C201.267 33.642 202.544 33.8031 203.808 34.1255C205.073 34.4478 206.3 34.8941 207.49 35.4644C208.68 36.0347 209.808 36.7041 210.875 37.4728C211.966 38.2414 212.982 39.0721 213.924 39.9647L217.867 35.2412H220.322V75ZM210.094 54.7301C210.094 53.3416 209.821 52.0026 209.275 50.7133C208.755 49.3992 208.036 48.2462 207.118 47.2544C206.201 46.2378 205.122 45.432 203.882 44.8369C202.668 44.217 201.366 43.9071 199.977 43.9071C198.589 43.9071 197.275 44.1426 196.035 44.6137C194.82 45.0848 193.754 45.7791 192.836 46.6965C191.944 47.6139 191.237 48.7545 190.716 50.1182C190.196 51.4572 189.935 52.9944 189.935 54.7301C189.935 56.4657 190.196 58.0154 190.716 59.3792C191.237 60.7181 191.944 61.8463 192.836 62.7637C193.754 63.6811 194.82 64.3753 196.035 64.8465C197.275 65.3176 198.589 65.5531 199.977 65.5531C201.366 65.5531 202.668 65.2556 203.882 64.6605C205.122 64.0406 206.201 63.2348 207.118 62.243C208.036 61.2264 208.755 60.0734 209.275 58.7841C209.821 57.4699 210.094 56.1186 210.094 54.7301ZM238.323 75H228.095V19.3228H238.323V54.4326L253.46 35.2412H265.138L251.935 51.8291L265.138 75H253.46L245.389 60.5321L238.323 69.9046V75ZM289.128 75C286.673 75 284.367 74.5413 282.21 73.6239C280.053 72.6817 278.156 71.4047 276.519 69.7931C274.908 68.1566 273.631 66.2598 272.689 64.1026C271.771 61.9454 271.312 59.6395 271.312 57.1848V45.3576H266.366V35.2412H271.312V19.3228H281.429V35.2412H296.827V45.3576H281.429V57.1848C281.429 58.251 281.627 59.2552 282.024 60.1974C282.421 61.1148 282.966 61.9206 283.66 62.6149C284.355 63.3092 285.173 63.867 286.115 64.2886C287.057 64.6853 288.061 64.8836 289.128 64.8836H296.827V75H289.128ZM341.048 54.7301C341.048 57.7055 340.515 60.4825 339.449 63.0612C338.383 65.6151 336.932 67.8342 335.098 69.7187C333.263 71.5783 331.106 73.0536 328.626 74.1446C326.171 75.2108 323.531 75.7438 320.704 75.7438C317.902 75.7438 315.262 75.2108 312.782 74.1446C310.327 73.0536 308.17 71.5783 306.311 69.7187C304.476 67.8342 303.025 65.6151 301.959 63.0612C300.893 60.4825 300.36 57.7055 300.36 54.7301C300.36 51.7051 300.893 48.9033 301.959 46.3246C303.025 43.7459 304.476 41.5268 306.311 39.6671C308.17 37.7827 310.327 36.3074 312.782 35.2412C315.262 34.175 317.902 33.642 320.704 33.642C323.531 33.642 326.171 34.1502 328.626 35.1668C331.106 36.1586 333.263 37.5844 335.098 39.444C336.932 41.2788 338.383 43.498 339.449 46.1014C340.515 48.6801 341.048 51.5563 341.048 54.7301ZM330.82 54.7301C330.82 53.0936 330.548 51.6183 330.002 50.3042C329.482 48.9653 328.762 47.8247 327.845 46.8825C326.928 45.9155 325.849 45.184 324.609 44.6881C323.394 44.1674 322.093 43.9071 320.704 43.9071C319.316 43.9071 318.001 44.1674 316.762 44.6881C315.547 45.184 314.481 45.9155 313.563 46.8825C312.671 47.8247 311.964 48.9653 311.443 50.3042C310.922 51.6183 310.662 53.0936 310.662 54.7301C310.662 56.2674 310.922 57.6931 311.443 59.0072C311.964 60.3214 312.671 61.4619 313.563 62.4289C314.481 63.3959 315.547 64.1646 316.762 64.7349C318.001 65.2804 319.316 65.5531 320.704 65.5531C322.093 65.5531 323.394 65.2928 324.609 64.7721C325.849 64.2514 326.928 63.5199 327.845 62.5777C328.762 61.6355 329.482 60.4949 330.002 59.156C330.548 57.8171 330.82 56.3418 330.82 54.7301ZM356.818 75H346.664V35.1668H349.119L352.466 39.8903C354.103 38.4026 355.963 37.262 358.045 36.4686C360.128 35.6503 362.285 35.2412 364.517 35.2412H373.48V45.3576H364.517C363.451 45.3576 362.446 45.5559 361.504 45.9527C360.562 46.3494 359.744 46.8949 359.05 47.5891C358.355 48.2834 357.81 49.1016 357.413 50.0438C357.016 50.986 356.818 51.9902 356.818 53.0564V75Z" fill="white"/>
<defs>
<linearGradient id="paint0_linear" x1="44.75" y1="0" x2="44.75" y2="89.5" gradientUnits="userSpaceOnUse">
<stop stop-color="#ED885D"/>
<stop offset="1" stop-color="#EE6C64"/>
</linearGradient>
</defs>
</svg>
