<svg width="21" height="35" viewBox="0 0 21 35" fill="none" xmlns="http://www.w3.org/2000/svg">
<path d="M18.302 0H2.69801C1.39801 0 0.334015 1.063 0.334015 2.364V32.635C0.334015 33.936 1.39801 35 2.69801 35H18.302C19.602 35 20.666 33.938 20.666 32.636V2.364C20.666 1.063 19.602 0 18.302 0ZM8.00401 1.704H12.996C13.154 1.704 13.282 1.832 13.282 1.991C13.282 2.149 13.154 2.277 12.996 2.277H8.00401C7.84601 2.277 7.71802 2.149 7.71802 1.991C7.71802 1.832 7.84601 1.704 8.00401 1.704ZM10.5 33.818C9.84702 33.818 9.31802 33.289 9.31802 32.635C9.31802 31.981 9.84702 31.453 10.5 31.453C11.153 31.453 11.682 31.981 11.682 32.635C11.682 33.289 11.153 33.818 10.5 33.818ZM19.021 30.625H1.97901V3.749H19.021V30.625Z" fill="white"/>
</svg>
